<svg xmlns="http://www.w3.org/2000/svg" viewBox="0 0 24 24" id="Interface-Essential-Call-Center-Contact-Help--Streamline-Pixel" height="24" width="24"><desc>Interface Essential Call Center Contact Help Streamline Icon: https://streamlinehq.com</desc><title>interface-essential-call-center-contact-help</title><g><path d="M22.8525 10.86h-1.1400000000000001v-1.1475H19.424999999999997V4.005h-1.1400000000000001v13.71h1.1400000000000001v3.4275h1.1475v-2.2874999999999996h1.1400000000000001v-1.1400000000000001h1.1400000000000001V16.575000000000003H24V12h-1.1475Zm-2.2800000000000002 5.715H19.424999999999997v-5.715h1.1475Z" fill="#ffffff" stroke-width="0.75"></path><path d="M15.997499999999999 21.142500000000002h3.4275v1.1475h-3.4275Z" fill="#ffffff" stroke-width="0.75"></path><path d="M17.137500000000003 2.8575h1.1475v1.1475h-1.1475Z" fill="#ffffff" stroke-width="0.75"></path><path d="M15.997499999999999 1.7175h1.1400000000000001v1.1400000000000001h-1.1400000000000001Z" fill="#ffffff" stroke-width="0.75"></path><path d="M7.995 0.5700000000000001h8.0025v1.1475H7.995Z" fill="#ffffff" stroke-width="0.75"></path><path d="M12.57 22.29h3.4275v1.1400000000000001h-3.4275Z" fill="#ffffff" stroke-width="0.75"></path><path d="M12.57 20.0025h3.4275v1.1400000000000001h-3.4275Z" fill="#ffffff" stroke-width="0.75"></path><path d="M11.43 21.142500000000002h1.1400000000000001v1.1475h-1.1400000000000001Z" fill="#ffffff" stroke-width="0.75"></path><path d="M6.855 1.7175h1.1400000000000001v1.1400000000000001H6.855Z" fill="#ffffff" stroke-width="0.75"></path><path d="M5.715 2.8575h1.1400000000000001v1.1475H5.715Z" fill="#ffffff" stroke-width="0.75"></path><path d="M4.5675 9.712499999999999H2.2874999999999996v1.1475H1.1400000000000001V12H0v4.574999999999999h1.1400000000000001v1.1400000000000001h1.1475v1.1400000000000001h2.2800000000000002v-1.1400000000000001h1.1475V4.005H4.5675Zm0 6.862500000000001H3.4275v-5.715h1.1400000000000001Z" fill="#ffffff" stroke-width="0.75"></path></g></svg>