<svg xmlns="http://www.w3.org/2000/svg" viewBox="0 0 24 24" id="Interface-Essential-Face-Id-1--Streamline-Pixel" height="24" width="24"><desc>Interface Essential Face Id 1 Streamline Icon: https://streamlinehq.com</desc><title>interface-essential-face-id_1</title><g><path d="M21.7125 6.855H24v1.1475h-2.2874999999999996Z" fill="#ffffff" stroke-width="0.75"></path><path d="M21.7125 15.997499999999999H24v1.1475h-2.2874999999999996Z" fill="#ffffff" stroke-width="0.75"></path><path d="M21.7125 11.43H24v1.1400000000000001h-2.2874999999999996Z" fill="#ffffff" stroke-width="0.75"></path><path d="M20.572499999999998 20.572499999999998h1.1400000000000001v1.1400000000000001h-1.1400000000000001Z" fill="#ffffff" stroke-width="0.75"></path><path d="M20.572499999999998 2.2874999999999996h1.1400000000000001v1.1400000000000001h-1.1400000000000001Z" fill="#ffffff" stroke-width="0.75"></path><path d="M19.4325 19.424999999999997h1.1400000000000001v1.1475h-1.1400000000000001Z" fill="#ffffff" stroke-width="0.75"></path><path d="M19.4325 9.1425h1.1400000000000001v5.715h-1.1400000000000001Z" fill="#ffffff" stroke-width="0.75"></path><path d="M19.4325 3.4275h1.1400000000000001v1.1400000000000001h-1.1400000000000001Z" fill="#ffffff" stroke-width="0.75"></path><path d="M18.285 14.857499999999998h1.1475v2.2874999999999996h-1.1475Z" fill="#ffffff" stroke-width="0.75"></path><path d="M18.285 6.855h1.1475v2.2874999999999996h-1.1475Z" fill="#ffffff" stroke-width="0.75"></path><path d="M17.145 5.715h1.1400000000000001v1.1400000000000001h-1.1400000000000001Z" fill="#ffffff" stroke-width="0.75"></path><path d="M16.005 21.7125h1.1400000000000001V24h-1.1400000000000001Z" fill="#ffffff" stroke-width="0.75"></path><path d="m16.005 18.285 -1.1475 0 0 1.1400000000000001 2.2874999999999996 0 0 -1.1400000000000001 1.1400000000000001 0 0 -1.1400000000000001 -2.2800000000000002 0 0 1.1400000000000001z" fill="#ffffff" stroke-width="0.75"></path><path d="M16.005 0h1.1400000000000001v2.2874999999999996h-1.1400000000000001Z" fill="#ffffff" stroke-width="0.75"></path><path d="M14.857499999999998 15.997499999999999h1.1475v1.1475h-1.1475Z" fill="#ffffff" stroke-width="0.75"></path><path d="M14.857499999999998 4.5675h2.2874999999999996v1.1475h-2.2874999999999996Z" fill="#ffffff" stroke-width="0.75"></path><path d="M9.1425 19.424999999999997h5.715v1.1475h-5.715Z" fill="#ffffff" stroke-width="0.75"></path><path d="M11.43 21.7125h1.1400000000000001V24h-1.1400000000000001Z" fill="#ffffff" stroke-width="0.75"></path><path d="M11.43 0h1.1400000000000001v2.2874999999999996h-1.1400000000000001Z" fill="#ffffff" stroke-width="0.75"></path><path d="M9.1425 14.857499999999998h5.715v1.1400000000000001h-5.715Z" fill="#ffffff" stroke-width="0.75"></path><path d="M9.1425 3.4275h5.715v1.1400000000000001h-5.715Z" fill="#ffffff" stroke-width="0.75"></path><path d="m8.0025 18.285 0 -1.1400000000000001 -2.2874999999999996 0 0 1.1400000000000001 1.1475 0 0 1.1400000000000001 2.2800000000000002 0 0 -1.1400000000000001 -1.1400000000000001 0z" fill="#ffffff" stroke-width="0.75"></path><path d="M8.0025 15.997499999999999h1.1400000000000001v1.1475h-1.1400000000000001Z" fill="#ffffff" stroke-width="0.75"></path><path d="m9.1425 10.2825 1.1475 0 0 -1.1400000000000001 3.4275 0 0 1.1400000000000001 1.1400000000000001 0 0 4.574999999999999 1.1475 0 0 -6.855 -1.1475 0 0 -1.1475 -5.715 0 0 1.1475 -1.1400000000000001 0 0 6.855 1.1400000000000001 0 0 -4.574999999999999z" fill="#ffffff" stroke-width="0.75"></path><path d="M6.862500000000001 4.5675h2.2800000000000002v1.1475H6.862500000000001Z" fill="#ffffff" stroke-width="0.75"></path><path d="M6.862500000000001 21.7125h1.1400000000000001V24H6.862500000000001Z" fill="#ffffff" stroke-width="0.75"></path><path d="M6.862500000000001 0h1.1400000000000001v2.2874999999999996H6.862500000000001Z" fill="#ffffff" stroke-width="0.75"></path><path d="M5.715 5.715h1.1475v1.1400000000000001H5.715Z" fill="#ffffff" stroke-width="0.75"></path><path d="M4.574999999999999 14.857499999999998h1.1400000000000001v2.2874999999999996H4.574999999999999Z" fill="#ffffff" stroke-width="0.75"></path><path d="M4.574999999999999 6.855h1.1400000000000001v2.2874999999999996H4.574999999999999Z" fill="#ffffff" stroke-width="0.75"></path><path d="M3.4275 19.424999999999997H4.574999999999999v1.1475H3.4275Z" fill="#ffffff" stroke-width="0.75"></path><path d="M3.4275 9.1425H4.574999999999999v5.715H3.4275Z" fill="#ffffff" stroke-width="0.75"></path><path d="M3.4275 3.4275H4.574999999999999v1.1400000000000001H3.4275Z" fill="#ffffff" stroke-width="0.75"></path><path d="M2.2874999999999996 20.572499999999998h1.1400000000000001v1.1400000000000001H2.2874999999999996Z" fill="#ffffff" stroke-width="0.75"></path><path d="M2.2874999999999996 2.2874999999999996h1.1400000000000001v1.1400000000000001H2.2874999999999996Z" fill="#ffffff" stroke-width="0.75"></path><path d="M0 15.997499999999999h2.2874999999999996v1.1475H0Z" fill="#ffffff" stroke-width="0.75"></path><path d="M0 11.43h2.2874999999999996v1.1400000000000001H0Z" fill="#ffffff" stroke-width="0.75"></path><path d="M0 6.855h2.2874999999999996v1.1475H0Z" fill="#ffffff" stroke-width="0.75"></path></g></svg>