<?xml version="1.0" encoding="UTF-8"?><svg id="Layer_2" xmlns="http://www.w3.org/2000/svg" viewBox="0 0 24 22.9"><defs><style>.cls-1{fill:#fff;}</style></defs><g id="Layer_1-2"><polygon class="cls-1" points="24 9.14 24 14.86 22.9 14.86 22.9 17.17 21.79 17.17 21.79 19.48 20.59 19.48 20.59 20.59 19.48 20.59 19.48 21.69 17.17 21.69 17.17 22.9 14.86 22.9 14.86 18.28 13.76 18.28 13.76 17.17 17.17 17.17 17.17 15.97 18.28 15.97 18.28 14.86 19.48 14.86 19.48 13.66 20.59 13.66 20.59 10.24 19.48 10.24 19.48 9.14 18.28 9.14 18.28 4.52 17.17 4.52 17.17 5.72 16.07 5.72 16.07 6.83 14.86 6.83 14.86 5.72 9.14 5.72 9.14 6.83 8.03 6.83 8.03 5.72 6.83 5.72 6.83 4.52 5.72 4.52 5.72 9.14 4.62 9.14 4.62 10.24 3.41 10.24 3.41 13.66 4.62 13.66 4.62 14.86 5.72 14.86 5.72 15.97 6.83 15.97 6.83 17.17 10.34 17.17 10.34 18.28 9.14 18.28 9.14 19.48 5.72 19.48 5.72 18.28 4.62 18.28 4.62 17.17 3.41 17.17 3.41 18.28 4.62 18.28 4.62 19.48 5.72 19.48 5.72 20.59 9.14 20.59 9.14 22.9 6.83 22.9 6.83 21.69 4.62 21.69 4.62 20.59 3.41 20.59 3.41 19.48 2.31 19.48 2.31 17.17 1.1 17.17 1.1 14.86 0 14.86 0 9.14 1.1 9.14 1.1 6.83 2.31 6.83 2.31 4.52 3.41 4.52 3.41 3.41 4.62 3.41 4.62 2.21 6.83 2.21 6.83 1.1 9.14 1.1 9.14 0 14.86 0 14.86 1.1 17.17 1.1 17.17 2.21 19.48 2.21 19.48 3.41 20.59 3.41 20.59 4.52 21.79 4.52 21.79 6.83 22.9 6.83 22.9 9.14 24 9.14"/></g></svg>