<svg xmlns="http://www.w3.org/2000/svg" viewBox="0 0 24 24" id="School-Science-Graduation-Cap--Streamline-Pixel" height="24" width="24"><desc>School Science Graduation Cap Streamline Icon: https://streamlinehq.com</desc><title>school-science-graduation-cap</title><g><path d="m22.8525 5.7075000000000005 -1.1400000000000001 0 0 2.2874999999999996 -2.2874999999999996 0 0 1.1475 -2.2874999999999996 0 0 1.1400000000000001 2.2874999999999996 0 0 3.4275 -1.1400000000000001 0 0 1.1475 1.1400000000000001 0 0 2.2800000000000002 1.1400000000000001 0 0 -7.995 1.1475 0 0 10.2825 -1.1475 0 0 4.574999999999999L24 24l0 -4.574999999999999 -1.1475 0 0 -13.7175z" fill="#ffffff" stroke-width="0.75"></path><path d="M19.424999999999997 4.5675h2.2874999999999996v1.1400000000000001H19.424999999999997Z" fill="#ffffff" stroke-width="0.75"></path><path d="M18.285 17.137500000000003h1.1400000000000001v1.1475h-1.1400000000000001Z" fill="#ffffff" stroke-width="0.75"></path><path d="M14.850000000000001 6.855h4.574999999999999v1.1400000000000001h-4.574999999999999Z" fill="#ffffff" stroke-width="0.75"></path><path d="M17.137500000000003 3.4275h2.2874999999999996v1.1400000000000001h-2.2874999999999996Z" fill="#ffffff" stroke-width="0.75"></path><path d="M15.997499999999999 18.285h2.2874999999999996v1.1400000000000001h-2.2874999999999996Z" fill="#ffffff" stroke-width="0.75"></path><path d="M15.997499999999999 14.857499999999998h2.2874999999999996v1.1400000000000001h-2.2874999999999996Z" fill="#ffffff" stroke-width="0.75"></path><path d="M14.850000000000001 10.2825h2.2874999999999996v1.1400000000000001H14.850000000000001Z" fill="#ffffff" stroke-width="0.75"></path><path d="M14.850000000000001 2.2800000000000002h2.2874999999999996v1.1475H14.850000000000001Z" fill="#ffffff" stroke-width="0.75"></path><path d="M6.855 19.424999999999997h9.1425v1.1400000000000001H6.855Z" fill="#ffffff" stroke-width="0.75"></path><path d="M6.855 15.997499999999999h9.1425v1.1400000000000001H6.855Z" fill="#ffffff" stroke-width="0.75"></path><path d="M12.57 11.4225h2.2800000000000002v1.1475h-2.2800000000000002Z" fill="#ffffff" stroke-width="0.75"></path><path d="M10.2825 5.7075000000000005h4.5675v1.1475h-4.5675Z" fill="#ffffff" stroke-width="0.75"></path><path d="M12.57 1.1400000000000001h2.2800000000000002v1.1400000000000001h-2.2800000000000002Z" fill="#ffffff" stroke-width="0.75"></path><path d="M10.2825 0h2.2874999999999996v1.1400000000000001h-2.2874999999999996Z" fill="#ffffff" stroke-width="0.75"></path><path d="M10.2825 12.57h2.2874999999999996v1.1400000000000001h-2.2874999999999996Z" fill="#ffffff" stroke-width="0.75"></path><path d="M7.995 1.1400000000000001h2.2874999999999996v1.1400000000000001h-2.2874999999999996Z" fill="#ffffff" stroke-width="0.75"></path><path d="M7.995 11.4225h2.2874999999999996v1.1475h-2.2874999999999996Z" fill="#ffffff" stroke-width="0.75"></path><path d="M5.7075000000000005 2.2800000000000002h2.2874999999999996v1.1475H5.7075000000000005Z" fill="#ffffff" stroke-width="0.75"></path><path d="M4.5675 18.285h2.2874999999999996v1.1400000000000001H4.5675Z" fill="#ffffff" stroke-width="0.75"></path><path d="M4.5675 14.857499999999998h2.2874999999999996v1.1400000000000001H4.5675Z" fill="#ffffff" stroke-width="0.75"></path><path d="M5.7075000000000005 10.2825h2.2874999999999996v1.1400000000000001H5.7075000000000005Z" fill="#ffffff" stroke-width="0.75"></path><path d="M3.4275 3.4275h2.2800000000000002v1.1400000000000001H3.4275Z" fill="#ffffff" stroke-width="0.75"></path><path d="M3.4275 17.137500000000003h1.1400000000000001v1.1475H3.4275Z" fill="#ffffff" stroke-width="0.75"></path><path d="m4.5675 14.857499999999998 0 -1.1475 -1.1400000000000001 0 0 -3.4275 2.2800000000000002 0 0 -1.1400000000000001 -2.2800000000000002 0 0 -1.1475 -2.2874999999999996 0 0 1.1475 1.1400000000000001 0 0 7.995 1.1475 0 0 -2.2800000000000002 1.1400000000000001 0z" fill="#ffffff" stroke-width="0.75"></path><path d="M1.1400000000000001 4.5675h2.2874999999999996v1.1400000000000001H1.1400000000000001Z" fill="#ffffff" stroke-width="0.75"></path><path d="M0 5.7075000000000005h1.1400000000000001v2.2874999999999996H0Z" fill="#ffffff" stroke-width="0.75"></path></g></svg>