<svg xmlns="http://www.w3.org/2000/svg" viewBox="0 0 24 24" id="Logo-Linkedin--Streamline-Pixel" height="24" width="24"><desc>Logo Linkedin Streamline Icon: https://streamlinehq.com</desc><title>logo-linkedin</title><g><path d="M22.8525 2.2874999999999996H24v19.424999999999997h-1.1475Z" fill="#ffffff" stroke-width="0.75"></path><path d="M21.7125 21.7125h1.1400000000000001v1.1475h-1.1400000000000001Z" fill="#ffffff" stroke-width="0.75"></path><path d="M21.7125 1.1400000000000001h1.1400000000000001v1.1475h-1.1400000000000001Z" fill="#ffffff" stroke-width="0.75"></path><path d="M20.565 3.4275h1.1475v17.145h-1.1475Z" fill="#ffffff" stroke-width="0.75"></path><path d="M2.2800000000000002 22.86h19.4325V24H2.2800000000000002Z" fill="#ffffff" stroke-width="0.75"></path><path d="M3.4275 20.572499999999998h17.137500000000003v1.1400000000000001H3.4275Z" fill="#ffffff" stroke-width="0.75"></path><path d="m17.137500000000003 11.43 -1.1400000000000001 0 0 -1.1475 -2.2874999999999996 0 0 1.1475 -1.1400000000000001 0 0 -1.1475 -2.2874999999999996 0 0 6.862500000000001 2.2874999999999996 0 0 -3.4275 1.1400000000000001 0 0 -1.1475 1.1475 0 0 1.1475 1.1400000000000001 0 0 3.4275 2.2874999999999996 0 0 -4.574999999999999 -1.1475 0 0 -1.1400000000000001z" fill="#ffffff" stroke-width="0.75"></path><path d="M5.7075000000000005 10.2825h2.2874999999999996v6.862500000000001H5.7075000000000005Z" fill="#ffffff" stroke-width="0.75"></path><path d="M5.7075000000000005 6.855h2.2874999999999996v2.2874999999999996H5.7075000000000005Z" fill="#ffffff" stroke-width="0.75"></path><path d="M3.4275 2.2874999999999996h17.137500000000003v1.1400000000000001H3.4275Z" fill="#ffffff" stroke-width="0.75"></path><path d="M2.2800000000000002 0h19.4325v1.1400000000000001H2.2800000000000002Z" fill="#ffffff" stroke-width="0.75"></path><path d="M2.2800000000000002 3.4275h1.1475v17.145H2.2800000000000002Z" fill="#ffffff" stroke-width="0.75"></path><path d="M1.1400000000000001 21.7125h1.1400000000000001v1.1475H1.1400000000000001Z" fill="#ffffff" stroke-width="0.75"></path><path d="M1.1400000000000001 1.1400000000000001h1.1400000000000001v1.1475H1.1400000000000001Z" fill="#ffffff" stroke-width="0.75"></path><path d="M0 2.2874999999999996h1.1400000000000001v19.424999999999997H0Z" fill="#ffffff" stroke-width="0.75"></path></g></svg>